<mxfile host="app.diagrams.net" modified="2023-04-18T06:52:23.208Z" agent="Mozilla/5.0 (Windows NT 10.0; Win64; x64) AppleWebKit/537.36 (KHTML, like Gecko) Chrome/111.0.0.0 Safari/537.36" etag="lExGuW7BhFjU_ufQgVNY" version="21.1.8" type="device" pages="2">
  <diagram name="Page-1" id="7Dt6NddrSka1G5lpPbdA">
    <mxGraphModel dx="1034" dy="1562" grid="1" gridSize="10" guides="1" tooltips="1" connect="1" arrows="1" fold="1" page="1" pageScale="1" pageWidth="850" pageHeight="1100" math="0" shadow="0">
      <root>
        <mxCell id="0" />
        <mxCell id="1" parent="0" />
        <mxCell id="ngt2FpApmZDFrWTeTpD6-36" value="" style="edgeStyle=entityRelationEdgeStyle;startArrow=none;endArrow=none;segment=10;curved=1;sourcePerimeterSpacing=0;targetPerimeterSpacing=0;rounded=0;" parent="1" edge="1">
          <mxGeometry relative="1" as="geometry">
            <mxPoint x="350" y="610" as="sourcePoint" />
            <mxPoint x="380" y="583" as="targetPoint" />
          </mxGeometry>
        </mxCell>
        <mxCell id="SibRGQfv5zgWSWt88Hae-18" value="Airport" style="swimlane;fontStyle=1;align=center;verticalAlign=top;childLayout=stackLayout;horizontal=1;startSize=26;horizontalStack=0;resizeParent=1;resizeParentMax=0;resizeLast=0;collapsible=1;marginBottom=0;whiteSpace=wrap;html=1;" parent="1" vertex="1">
          <mxGeometry x="295" y="-470" width="130" height="154" as="geometry">
            <mxRectangle x="330" y="640" width="80" height="30" as="alternateBounds" />
          </mxGeometry>
        </mxCell>
        <object label="airportName:String&lt;br&gt;cityName:String&lt;br&gt;area:String&lt;br&gt;m_isOpen : Boolean&lt;br&gt;&lt;br&gt;&lt;br&gt;&lt;br&gt;" id="SibRGQfv5zgWSWt88Hae-19">
          <mxCell style="text;strokeColor=none;fillColor=none;align=left;verticalAlign=top;spacingLeft=4;spacingRight=4;overflow=hidden;rotatable=0;points=[[0,0.5],[1,0.5]];portConstraint=eastwest;whiteSpace=wrap;html=1;" parent="SibRGQfv5zgWSWt88Hae-18" vertex="1">
            <mxGeometry y="26" width="130" height="60" as="geometry" />
          </mxCell>
        </object>
        <mxCell id="SibRGQfv5zgWSWt88Hae-20" value="" style="line;strokeWidth=1;fillColor=none;align=left;verticalAlign=middle;spacingTop=-1;spacingLeft=3;spacingRight=3;rotatable=0;labelPosition=right;points=[];portConstraint=eastwest;strokeColor=inherit;" parent="SibRGQfv5zgWSWt88Hae-18" vertex="1">
          <mxGeometry y="86" width="130" height="8" as="geometry" />
        </mxCell>
        <object label="&amp;nbsp;getopenstatus()&lt;br&gt;setOpenStatus()&lt;br&gt;getAirportDetails()" CityName="String" id="SibRGQfv5zgWSWt88Hae-21">
          <mxCell style="text;strokeColor=none;fillColor=none;align=left;verticalAlign=top;spacingLeft=4;spacingRight=4;overflow=hidden;rotatable=0;points=[[0,0.5],[1,0.5]];portConstraint=eastwest;whiteSpace=wrap;html=1;" parent="SibRGQfv5zgWSWt88Hae-18" vertex="1">
            <mxGeometry y="94" width="130" height="60" as="geometry" />
          </mxCell>
        </object>
        <mxCell id="SibRGQfv5zgWSWt88Hae-26" value="&lt;p style=&quot;margin:0px;margin-top:4px;text-align:center;&quot;&gt;&lt;b&gt;Class&lt;/b&gt;&lt;/p&gt;&lt;hr size=&quot;1&quot;/&gt;&lt;p style=&quot;margin:0px;margin-left:4px;&quot;&gt;+ field: Type&lt;/p&gt;&lt;hr size=&quot;1&quot;/&gt;&lt;p style=&quot;margin:0px;margin-left:4px;&quot;&gt;+ method(): Type&lt;/p&gt;" style="verticalAlign=top;align=left;overflow=fill;fontSize=12;fontFamily=Helvetica;html=1;whiteSpace=wrap;" parent="1" vertex="1">
          <mxGeometry x="580" y="800" width="160" height="90" as="geometry" />
        </mxCell>
        <mxCell id="SibRGQfv5zgWSWt88Hae-27" value="&lt;p style=&quot;margin:0px;margin-top:4px;text-align:center;&quot;&gt;&lt;b&gt;Class&lt;/b&gt;&lt;/p&gt;&lt;hr size=&quot;1&quot;/&gt;&lt;p style=&quot;margin:0px;margin-left:4px;&quot;&gt;+ field: Type&lt;/p&gt;&lt;hr size=&quot;1&quot;/&gt;&lt;p style=&quot;margin:0px;margin-left:4px;&quot;&gt;+ method(): Type&lt;/p&gt;" style="verticalAlign=top;align=left;overflow=fill;fontSize=12;fontFamily=Helvetica;html=1;whiteSpace=wrap;" parent="1" vertex="1">
          <mxGeometry x="580" y="800" width="160" height="90" as="geometry" />
        </mxCell>
        <mxCell id="foKu9SYrdTQAazQL1OzK-4" value="&lt;p style=&quot;margin:0px;margin-top:4px;text-align:center;&quot;&gt;&lt;b&gt;TicketCounter&lt;/b&gt;&lt;/p&gt;&lt;hr size=&quot;1&quot;&gt;&lt;p style=&quot;margin:0px;margin-left:4px;&quot;&gt;ticketId:String&lt;/p&gt;&lt;p style=&quot;margin:0px;margin-left:4px;&quot;&gt;source:String&lt;/p&gt;&lt;p style=&quot;margin:0px;margin-left:4px;&quot;&gt;destination:String&lt;/p&gt;&lt;p style=&quot;margin:0px;margin-left:4px;&quot;&gt;price:Double&lt;/p&gt;&lt;p style=&quot;margin:0px;margin-left:4px;&quot;&gt;passengerId:String&lt;/p&gt;&lt;p style=&quot;margin:0px;margin-left:4px;&quot;&gt;flightId:String&lt;/p&gt;&lt;hr size=&quot;1&quot;&gt;&lt;p style=&quot;margin:0px;margin-left:4px;&quot;&gt;getTicketDetails()&lt;/p&gt;&lt;p style=&quot;margin:0px;margin-left:4px;&quot;&gt;bookTicket()&lt;/p&gt;" style="verticalAlign=top;align=left;overflow=fill;fontSize=12;fontFamily=Helvetica;html=1;whiteSpace=wrap;" parent="1" vertex="1">
          <mxGeometry x="30" y="-280" width="160" height="160" as="geometry" />
        </mxCell>
        <mxCell id="foKu9SYrdTQAazQL1OzK-7" value="&lt;p style=&quot;margin:0px;margin-top:4px;text-align:center;&quot;&gt;&lt;b&gt;Flight&lt;/b&gt;&lt;/p&gt;&lt;hr size=&quot;1&quot;&gt;&lt;p style=&quot;margin:0px;margin-left:4px;&quot;&gt;FlightId: String&lt;/p&gt;&lt;p style=&quot;margin:0px;margin-left:4px;&quot;&gt;FlightName:String&lt;/p&gt;&lt;p style=&quot;margin:0px;margin-left:4px;&quot;&gt;FlightCapacity:Integer&lt;/p&gt;&lt;p style=&quot;margin:0px;margin-left:4px;&quot;&gt;Source:String&lt;/p&gt;&lt;p style=&quot;margin:0px;margin-left:4px;&quot;&gt;Destination:String&lt;/p&gt;&lt;p style=&quot;margin:0px;margin-left:4px;&quot;&gt;Price:Double&lt;/p&gt;&lt;p style=&quot;margin:0px;margin-left:4px;&quot;&gt;ArrivalTime:Time&lt;/p&gt;&lt;p style=&quot;margin:0px;margin-left:4px;&quot;&gt;DepartureTime:Time&lt;/p&gt;&lt;p style=&quot;margin:0px;margin-left:4px;&quot;&gt;&lt;br&gt;&lt;/p&gt;&lt;hr size=&quot;1&quot;&gt;&lt;p style=&quot;margin:0px;margin-left:4px;&quot;&gt;getFlightDetails()&lt;/p&gt;&lt;p style=&quot;margin:0px;margin-left:4px;&quot;&gt;getFlightStatus()&amp;nbsp;&lt;/p&gt;" style="verticalAlign=top;align=left;overflow=fill;fontSize=12;fontFamily=Helvetica;html=1;whiteSpace=wrap;" parent="1" vertex="1">
          <mxGeometry x="230" y="-280" width="160" height="200" as="geometry" />
        </mxCell>
        <mxCell id="foKu9SYrdTQAazQL1OzK-10" value="&lt;p style=&quot;margin:0px;margin-top:4px;text-align:center;&quot;&gt;&lt;b&gt;Employee&lt;/b&gt;&lt;/p&gt;&lt;hr size=&quot;1&quot;&gt;&lt;p style=&quot;margin:0px;margin-left:4px;&quot;&gt;EmployeeId: String&lt;/p&gt;&lt;p style=&quot;margin:0px;margin-left:4px;&quot;&gt;EmployeeSalary: Double&lt;/p&gt;&lt;p style=&quot;margin:0px;margin-left:4px;&quot;&gt;Designation:Designation&lt;br&gt;&lt;/p&gt;&lt;p style=&quot;margin:0px;margin-left:4px;&quot;&gt;&lt;br&gt;&lt;/p&gt;&lt;hr size=&quot;1&quot;&gt;&lt;p style=&quot;margin:0px;margin-left:4px;&quot;&gt;getEmployeeDetails()&lt;/p&gt;" style="verticalAlign=top;align=left;overflow=fill;fontSize=12;fontFamily=Helvetica;html=1;whiteSpace=wrap;" parent="1" vertex="1">
          <mxGeometry x="660" width="160" height="140" as="geometry" />
        </mxCell>
        <mxCell id="foKu9SYrdTQAazQL1OzK-11" value="&lt;p style=&quot;margin:0px;margin-top:4px;text-align:center;&quot;&gt;&lt;b&gt;Runway&lt;/b&gt;&lt;/p&gt;&lt;hr size=&quot;1&quot;&gt;&lt;p style=&quot;margin:0px;margin-left:4px;&quot;&gt;&amp;nbsp;RunwayNumber: Integer&lt;/p&gt;&lt;p style=&quot;margin:0px;margin-left:4px;&quot;&gt;FlightName:String&lt;/p&gt;&lt;p style=&quot;margin:0px;margin-left:4px;&quot;&gt;OccupiedStatus:Boolean&lt;/p&gt;&lt;p style=&quot;margin:0px;margin-left:4px;&quot;&gt;&lt;br&gt;&lt;/p&gt;&lt;hr size=&quot;1&quot;&gt;&lt;p style=&quot;margin:0px;margin-left:4px;&quot;&gt;getRunwayDetails()&lt;/p&gt;&lt;p style=&quot;margin:0px;margin-left:4px;&quot;&gt;print_IsOccupied()&lt;/p&gt;" style="verticalAlign=top;align=left;overflow=fill;fontSize=12;fontFamily=Helvetica;html=1;whiteSpace=wrap;" parent="1" vertex="1">
          <mxGeometry x="200" width="160" height="140" as="geometry" />
        </mxCell>
        <mxCell id="foKu9SYrdTQAazQL1OzK-12" value="&lt;p style=&quot;margin:0px;margin-top:4px;text-align:center;&quot;&gt;&lt;b&gt;Passenger&lt;/b&gt;&lt;/p&gt;&lt;hr size=&quot;1&quot;&gt;&lt;p style=&quot;margin:0px;margin-left:4px;&quot;&gt;passenger:Person&lt;/p&gt;&lt;p style=&quot;margin:0px;margin-left:4px;&quot;&gt;luggage:Luggage&lt;/p&gt;&lt;hr size=&quot;1&quot;&gt;&lt;p style=&quot;margin:0px;margin-left:4px;&quot;&gt;getPassengerDetails()&lt;/p&gt;&lt;p style=&quot;margin:0px;margin-left:4px;&quot;&gt;getCheckindetails()&lt;/p&gt;" style="verticalAlign=top;align=left;overflow=fill;fontSize=12;fontFamily=Helvetica;html=1;whiteSpace=wrap;" parent="1" vertex="1">
          <mxGeometry x="440" y="-30" width="160" height="160" as="geometry" />
        </mxCell>
        <mxCell id="foKu9SYrdTQAazQL1OzK-20" value="&lt;b&gt;AirPlaneEmployee&lt;/b&gt;" style="swimlane;fontStyle=0;childLayout=stackLayout;horizontal=1;startSize=40;fillColor=none;horizontalStack=0;resizeParent=1;resizeParentMax=0;resizeLast=0;collapsible=1;marginBottom=0;whiteSpace=wrap;html=1;" parent="1" vertex="1">
          <mxGeometry x="670" y="250" width="140" height="66" as="geometry" />
        </mxCell>
        <mxCell id="foKu9SYrdTQAazQL1OzK-21" value="getAssignedPlane()" style="text;strokeColor=none;fillColor=none;align=left;verticalAlign=top;spacingLeft=4;spacingRight=4;overflow=hidden;rotatable=0;points=[[0,0.5],[1,0.5]];portConstraint=eastwest;whiteSpace=wrap;html=1;" parent="foKu9SYrdTQAazQL1OzK-20" vertex="1">
          <mxGeometry y="40" width="140" height="26" as="geometry" />
        </mxCell>
        <mxCell id="foKu9SYrdTQAazQL1OzK-28" value="&lt;b&gt;AirportEmployee&lt;/b&gt;" style="swimlane;fontStyle=0;childLayout=stackLayout;horizontal=1;startSize=26;fillColor=none;horizontalStack=0;resizeParent=1;resizeParentMax=0;resizeLast=0;collapsible=1;marginBottom=0;whiteSpace=wrap;html=1;" parent="1" vertex="1">
          <mxGeometry x="490" y="227" width="140" height="52" as="geometry" />
        </mxCell>
        <mxCell id="foKu9SYrdTQAazQL1OzK-29" value="getAssignedAirport()" style="text;strokeColor=none;fillColor=none;align=left;verticalAlign=top;spacingLeft=4;spacingRight=4;overflow=hidden;rotatable=0;points=[[0,0.5],[1,0.5]];portConstraint=eastwest;whiteSpace=wrap;html=1;" parent="foKu9SYrdTQAazQL1OzK-28" vertex="1">
          <mxGeometry y="26" width="140" height="26" as="geometry" />
        </mxCell>
        <mxCell id="foKu9SYrdTQAazQL1OzK-32" value="Luggage" style="swimlane;fontStyle=1;align=center;verticalAlign=top;childLayout=stackLayout;horizontal=1;startSize=26;horizontalStack=0;resizeParent=1;resizeParentMax=0;resizeLast=0;collapsible=1;marginBottom=0;whiteSpace=wrap;html=1;" parent="1" vertex="1">
          <mxGeometry x="140" y="180" width="160" height="146" as="geometry" />
        </mxCell>
        <mxCell id="foKu9SYrdTQAazQL1OzK-33" value="&lt;p style=&quot;border-color: var(--border-color); margin: 0px 0px 0px 4px;&quot;&gt;LuggageId: String&lt;/p&gt;&lt;p style=&quot;border-color: var(--border-color); margin: 0px 0px 0px 4px;&quot;&gt;PassengerId:String&lt;/p&gt;&lt;p style=&quot;border-color: var(--border-color); margin: 0px 0px 0px 4px;&quot;&gt;FlightId:String&lt;/p&gt;&lt;p style=&quot;border-color: var(--border-color); margin: 0px 0px 0px 4px;&quot;&gt;NoOfLuggages:Integer&lt;/p&gt;" style="text;strokeColor=none;fillColor=none;align=left;verticalAlign=top;spacingLeft=4;spacingRight=4;overflow=hidden;rotatable=0;points=[[0,0.5],[1,0.5]];portConstraint=eastwest;whiteSpace=wrap;html=1;" parent="foKu9SYrdTQAazQL1OzK-32" vertex="1">
          <mxGeometry y="26" width="160" height="60" as="geometry" />
        </mxCell>
        <mxCell id="foKu9SYrdTQAazQL1OzK-34" value="" style="line;strokeWidth=1;fillColor=none;align=left;verticalAlign=middle;spacingTop=-1;spacingLeft=3;spacingRight=3;rotatable=0;labelPosition=right;points=[];portConstraint=eastwest;strokeColor=inherit;" parent="foKu9SYrdTQAazQL1OzK-32" vertex="1">
          <mxGeometry y="86" width="160" height="8" as="geometry" />
        </mxCell>
        <mxCell id="foKu9SYrdTQAazQL1OzK-35" value="&lt;p style=&quot;border-color: var(--border-color); margin: 0px 0px 0px 4px;&quot;&gt;getLuggageDetails()&lt;/p&gt;&lt;p style=&quot;border-color: var(--border-color); margin: 0px 0px 0px 4px;&quot;&gt;getLuggageStatus()&lt;/p&gt;" style="text;strokeColor=none;fillColor=none;align=left;verticalAlign=top;spacingLeft=4;spacingRight=4;overflow=hidden;rotatable=0;points=[[0,0.5],[1,0.5]];portConstraint=eastwest;whiteSpace=wrap;html=1;" parent="foKu9SYrdTQAazQL1OzK-32" vertex="1">
          <mxGeometry y="94" width="160" height="52" as="geometry" />
        </mxCell>
        <mxCell id="foKu9SYrdTQAazQL1OzK-44" value="NoticeBoard" style="swimlane;fontStyle=1;align=center;verticalAlign=top;childLayout=stackLayout;horizontal=1;startSize=26;horizontalStack=0;resizeParent=1;resizeParentMax=0;resizeLast=0;collapsible=1;marginBottom=0;whiteSpace=wrap;html=1;" parent="1" vertex="1">
          <mxGeometry x="470" y="-280" width="160" height="190" as="geometry" />
        </mxCell>
        <mxCell id="foKu9SYrdTQAazQL1OzK-45" value="FlightDetails:Flight" style="text;strokeColor=none;fillColor=none;align=left;verticalAlign=top;spacingLeft=4;spacingRight=4;overflow=hidden;rotatable=0;points=[[0,0.5],[1,0.5]];portConstraint=eastwest;whiteSpace=wrap;html=1;" parent="foKu9SYrdTQAazQL1OzK-44" vertex="1">
          <mxGeometry y="26" width="160" height="94" as="geometry" />
        </mxCell>
        <mxCell id="foKu9SYrdTQAazQL1OzK-46" value="" style="line;strokeWidth=1;fillColor=none;align=left;verticalAlign=middle;spacingTop=-1;spacingLeft=3;spacingRight=3;rotatable=0;labelPosition=right;points=[];portConstraint=eastwest;strokeColor=inherit;" parent="foKu9SYrdTQAazQL1OzK-44" vertex="1">
          <mxGeometry y="120" width="160" height="8" as="geometry" />
        </mxCell>
        <mxCell id="foKu9SYrdTQAazQL1OzK-47" value="printFlightDetails()&lt;br&gt;printFlightStatus()" style="text;strokeColor=none;fillColor=none;align=left;verticalAlign=top;spacingLeft=4;spacingRight=4;overflow=hidden;rotatable=0;points=[[0,0.5],[1,0.5]];portConstraint=eastwest;whiteSpace=wrap;html=1;" parent="foKu9SYrdTQAazQL1OzK-44" vertex="1">
          <mxGeometry y="128" width="160" height="62" as="geometry" />
        </mxCell>
        <mxCell id="AbFi8-gE8N-cRS5Ds_fm-1" value="" style="endArrow=diamondThin;endFill=1;endSize=24;html=1;rounded=0;exitX=0.706;exitY=0.003;exitDx=0;exitDy=0;exitPerimeter=0;entryX=0.679;entryY=1.032;entryDx=0;entryDy=0;entryPerimeter=0;" parent="1" source="foKu9SYrdTQAazQL1OzK-7" target="SibRGQfv5zgWSWt88Hae-21" edge="1">
          <mxGeometry width="160" relative="1" as="geometry">
            <mxPoint x="280" y="-310" as="sourcePoint" />
            <mxPoint x="440" y="-310" as="targetPoint" />
          </mxGeometry>
        </mxCell>
        <mxCell id="AbFi8-gE8N-cRS5Ds_fm-9" value="Route" style="swimlane;fontStyle=1;align=center;verticalAlign=top;childLayout=stackLayout;horizontal=1;startSize=26;horizontalStack=0;resizeParent=1;resizeParentMax=0;resizeLast=0;collapsible=1;marginBottom=0;whiteSpace=wrap;html=1;" parent="1" vertex="1">
          <mxGeometry x="20" y="-80" width="160" height="130" as="geometry" />
        </mxCell>
        <mxCell id="AbFi8-gE8N-cRS5Ds_fm-10" value="Source:String&lt;br&gt;Destination:String&lt;br&gt;NoOfFlights:Integer" style="text;strokeColor=none;fillColor=none;align=left;verticalAlign=top;spacingLeft=4;spacingRight=4;overflow=hidden;rotatable=0;points=[[0,0.5],[1,0.5]];portConstraint=eastwest;whiteSpace=wrap;html=1;" parent="AbFi8-gE8N-cRS5Ds_fm-9" vertex="1">
          <mxGeometry y="26" width="160" height="64" as="geometry" />
        </mxCell>
        <mxCell id="AbFi8-gE8N-cRS5Ds_fm-11" value="" style="line;strokeWidth=1;fillColor=none;align=left;verticalAlign=middle;spacingTop=-1;spacingLeft=3;spacingRight=3;rotatable=0;labelPosition=right;points=[];portConstraint=eastwest;strokeColor=inherit;" parent="AbFi8-gE8N-cRS5Ds_fm-9" vertex="1">
          <mxGeometry y="90" width="160" height="8" as="geometry" />
        </mxCell>
        <mxCell id="AbFi8-gE8N-cRS5Ds_fm-12" value="getRouteDetails()" style="text;strokeColor=none;fillColor=none;align=left;verticalAlign=top;spacingLeft=4;spacingRight=4;overflow=hidden;rotatable=0;points=[[0,0.5],[1,0.5]];portConstraint=eastwest;whiteSpace=wrap;html=1;" parent="AbFi8-gE8N-cRS5Ds_fm-9" vertex="1">
          <mxGeometry y="98" width="160" height="32" as="geometry" />
        </mxCell>
        <mxCell id="AbFi8-gE8N-cRS5Ds_fm-17" value="Person" style="swimlane;fontStyle=1;align=center;verticalAlign=top;childLayout=stackLayout;horizontal=1;startSize=26;horizontalStack=0;resizeParent=1;resizeParentMax=0;resizeLast=0;collapsible=1;marginBottom=0;whiteSpace=wrap;html=1;" parent="1" vertex="1">
          <mxGeometry x="650" y="-210" width="160" height="146" as="geometry" />
        </mxCell>
        <mxCell id="AbFi8-gE8N-cRS5Ds_fm-18" value="name:String&lt;br&gt;age:Integer&lt;br&gt;address:Address&lt;br&gt;gender:String&lt;br&gt;emailId:String" style="text;strokeColor=none;fillColor=none;align=left;verticalAlign=top;spacingLeft=4;spacingRight=4;overflow=hidden;rotatable=0;points=[[0,0.5],[1,0.5]];portConstraint=eastwest;whiteSpace=wrap;html=1;" parent="AbFi8-gE8N-cRS5Ds_fm-17" vertex="1">
          <mxGeometry y="26" width="160" height="86" as="geometry" />
        </mxCell>
        <mxCell id="AbFi8-gE8N-cRS5Ds_fm-19" value="" style="line;strokeWidth=1;fillColor=none;align=left;verticalAlign=middle;spacingTop=-1;spacingLeft=3;spacingRight=3;rotatable=0;labelPosition=right;points=[];portConstraint=eastwest;strokeColor=inherit;" parent="AbFi8-gE8N-cRS5Ds_fm-17" vertex="1">
          <mxGeometry y="112" width="160" height="8" as="geometry" />
        </mxCell>
        <mxCell id="AbFi8-gE8N-cRS5Ds_fm-20" value="getBasicDetails()" style="text;strokeColor=none;fillColor=none;align=left;verticalAlign=top;spacingLeft=4;spacingRight=4;overflow=hidden;rotatable=0;points=[[0,0.5],[1,0.5]];portConstraint=eastwest;whiteSpace=wrap;html=1;" parent="AbFi8-gE8N-cRS5Ds_fm-17" vertex="1">
          <mxGeometry y="120" width="160" height="26" as="geometry" />
        </mxCell>
        <mxCell id="AbFi8-gE8N-cRS5Ds_fm-24" value="" style="endArrow=diamondThin;endFill=1;endSize=24;html=1;rounded=0;entryX=0;entryY=0.5;entryDx=0;entryDy=0;exitX=0.5;exitY=0;exitDx=0;exitDy=0;" parent="1" source="foKu9SYrdTQAazQL1OzK-4" target="SibRGQfv5zgWSWt88Hae-21" edge="1">
          <mxGeometry width="160" relative="1" as="geometry">
            <mxPoint x="120" y="-290" as="sourcePoint" />
            <mxPoint x="280" y="-340" as="targetPoint" />
          </mxGeometry>
        </mxCell>
        <mxCell id="AbFi8-gE8N-cRS5Ds_fm-27" value="" style="endArrow=diamondThin;endFill=1;endSize=24;html=1;rounded=0;exitX=0.5;exitY=0;exitDx=0;exitDy=0;entryX=1.023;entryY=0.238;entryDx=0;entryDy=0;entryPerimeter=0;" parent="1" source="foKu9SYrdTQAazQL1OzK-44" target="SibRGQfv5zgWSWt88Hae-21" edge="1">
          <mxGeometry width="160" relative="1" as="geometry">
            <mxPoint x="360" y="-260" as="sourcePoint" />
            <mxPoint x="450" y="-350" as="targetPoint" />
          </mxGeometry>
        </mxCell>
        <mxCell id="AbFi8-gE8N-cRS5Ds_fm-33" value="Extends" style="endArrow=block;endSize=16;endFill=0;html=1;rounded=0;exitX=1;exitY=0.25;exitDx=0;exitDy=0;" parent="1" source="foKu9SYrdTQAazQL1OzK-12" target="AbFi8-gE8N-cRS5Ds_fm-20" edge="1">
          <mxGeometry width="160" relative="1" as="geometry">
            <mxPoint x="520" y="-40" as="sourcePoint" />
            <mxPoint x="670" y="-30" as="targetPoint" />
          </mxGeometry>
        </mxCell>
        <mxCell id="AbFi8-gE8N-cRS5Ds_fm-34" value="Extends" style="endArrow=block;endSize=16;endFill=0;html=1;rounded=0;entryX=0.752;entryY=1.141;entryDx=0;entryDy=0;entryPerimeter=0;" parent="1" source="foKu9SYrdTQAazQL1OzK-10" target="AbFi8-gE8N-cRS5Ds_fm-20" edge="1">
          <mxGeometry width="160" relative="1" as="geometry">
            <mxPoint x="510" y="-30" as="sourcePoint" />
            <mxPoint x="740" y="-110" as="targetPoint" />
          </mxGeometry>
        </mxCell>
        <mxCell id="AbFi8-gE8N-cRS5Ds_fm-36" value="Extends" style="endArrow=block;endSize=16;endFill=0;html=1;rounded=0;exitX=0.36;exitY=0.006;exitDx=0;exitDy=0;exitPerimeter=0;entryX=0;entryY=1;entryDx=0;entryDy=0;" parent="1" source="foKu9SYrdTQAazQL1OzK-28" target="foKu9SYrdTQAazQL1OzK-10" edge="1">
          <mxGeometry width="160" relative="1" as="geometry">
            <mxPoint x="440" y="80" as="sourcePoint" />
            <mxPoint x="600" y="80" as="targetPoint" />
          </mxGeometry>
        </mxCell>
        <mxCell id="AbFi8-gE8N-cRS5Ds_fm-37" value="Extends" style="endArrow=block;endSize=16;endFill=0;html=1;rounded=0;exitX=0.5;exitY=0;exitDx=0;exitDy=0;entryX=0.372;entryY=1.032;entryDx=0;entryDy=0;entryPerimeter=0;" parent="1" source="foKu9SYrdTQAazQL1OzK-20" target="foKu9SYrdTQAazQL1OzK-10" edge="1">
          <mxGeometry width="160" relative="1" as="geometry">
            <mxPoint x="680" y="150" as="sourcePoint" />
            <mxPoint x="750" y="100" as="targetPoint" />
          </mxGeometry>
        </mxCell>
        <mxCell id="AbFi8-gE8N-cRS5Ds_fm-38" value="" style="endArrow=diamondThin;endFill=1;endSize=24;html=1;rounded=0;exitX=0.75;exitY=0;exitDx=0;exitDy=0;" parent="1" source="AbFi8-gE8N-cRS5Ds_fm-9" target="foKu9SYrdTQAazQL1OzK-7" edge="1">
          <mxGeometry width="160" relative="1" as="geometry">
            <mxPoint x="440" y="-170" as="sourcePoint" />
            <mxPoint x="600" y="-170" as="targetPoint" />
            <Array as="points" />
          </mxGeometry>
        </mxCell>
        <mxCell id="AbFi8-gE8N-cRS5Ds_fm-39" value="" style="endArrow=diamondThin;endFill=0;endSize=24;html=1;rounded=0;exitX=0.648;exitY=0.007;exitDx=0;exitDy=0;exitPerimeter=0;entryX=0.554;entryY=1.018;entryDx=0;entryDy=0;entryPerimeter=0;" parent="1" source="foKu9SYrdTQAazQL1OzK-11" target="foKu9SYrdTQAazQL1OzK-7" edge="1">
          <mxGeometry width="160" relative="1" as="geometry">
            <mxPoint x="410" y="-121.63" as="sourcePoint" />
            <mxPoint x="570" y="-121.63" as="targetPoint" />
          </mxGeometry>
        </mxCell>
        <mxCell id="AbFi8-gE8N-cRS5Ds_fm-40" value="" style="endArrow=diamondThin;endFill=0;endSize=24;html=1;rounded=0;entryX=1;entryY=1;entryDx=0;entryDy=0;" parent="1" source="foKu9SYrdTQAazQL1OzK-12" target="foKu9SYrdTQAazQL1OzK-7" edge="1">
          <mxGeometry width="160" relative="1" as="geometry">
            <mxPoint x="440" y="-120" as="sourcePoint" />
            <mxPoint x="600" y="-120" as="targetPoint" />
          </mxGeometry>
        </mxCell>
        <mxCell id="AbFi8-gE8N-cRS5Ds_fm-48" value="" style="endArrow=open;endFill=1;endSize=12;html=1;rounded=0;exitX=0.419;exitY=1.002;exitDx=0;exitDy=0;exitPerimeter=0;entryX=0.122;entryY=0;entryDx=0;entryDy=0;entryPerimeter=0;" parent="1" source="foKu9SYrdTQAazQL1OzK-12" target="foKu9SYrdTQAazQL1OzK-28" edge="1">
          <mxGeometry width="160" relative="1" as="geometry">
            <mxPoint x="440" y="180" as="sourcePoint" />
            <mxPoint x="600" y="310" as="targetPoint" />
          </mxGeometry>
        </mxCell>
        <mxCell id="AbFi8-gE8N-cRS5Ds_fm-49" value="" style="endArrow=open;endFill=1;endSize=12;html=1;rounded=0;exitX=0.054;exitY=1.008;exitDx=0;exitDy=0;exitPerimeter=0;" parent="1" source="foKu9SYrdTQAazQL1OzK-12" edge="1">
          <mxGeometry width="160" relative="1" as="geometry">
            <mxPoint x="460" y="120" as="sourcePoint" />
            <mxPoint x="450" y="310" as="targetPoint" />
          </mxGeometry>
        </mxCell>
        <mxCell id="AbFi8-gE8N-cRS5Ds_fm-50" value="" style="endArrow=open;endFill=1;endSize=12;html=1;rounded=0;entryX=-0.021;entryY=0.904;entryDx=0;entryDy=0;entryPerimeter=0;" parent="1" target="foKu9SYrdTQAazQL1OzK-21" edge="1">
          <mxGeometry width="160" relative="1" as="geometry">
            <mxPoint x="450" y="310" as="sourcePoint" />
            <mxPoint x="600" y="210" as="targetPoint" />
          </mxGeometry>
        </mxCell>
        <mxCell id="AbFi8-gE8N-cRS5Ds_fm-51" value="" style="endArrow=diamondThin;endFill=1;endSize=24;html=1;rounded=0;exitX=1.002;exitY=0.919;exitDx=0;exitDy=0;exitPerimeter=0;entryX=-0.014;entryY=0.818;entryDx=0;entryDy=0;entryPerimeter=0;" parent="1" source="foKu9SYrdTQAazQL1OzK-33" target="foKu9SYrdTQAazQL1OzK-12" edge="1">
          <mxGeometry width="160" relative="1" as="geometry">
            <mxPoint x="440" y="210" as="sourcePoint" />
            <mxPoint x="430" y="80" as="targetPoint" />
            <Array as="points">
              <mxPoint x="420" y="110" />
            </Array>
          </mxGeometry>
        </mxCell>
        <mxCell id="AbFi8-gE8N-cRS5Ds_fm-52" value="" style="endArrow=diamondThin;endFill=0;endSize=24;html=1;rounded=0;entryX=0.997;entryY=0.385;entryDx=0;entryDy=0;entryPerimeter=0;" parent="1" source="foKu9SYrdTQAazQL1OzK-45" target="foKu9SYrdTQAazQL1OzK-7" edge="1">
          <mxGeometry width="160" relative="1" as="geometry">
            <mxPoint x="460" y="-190" as="sourcePoint" />
            <mxPoint x="430" y="-190" as="targetPoint" />
          </mxGeometry>
        </mxCell>
        <mxCell id="bhQrwd5_D6PokJX49yjE-5" value="Designation" style="swimlane;fontStyle=1;align=center;verticalAlign=top;childLayout=stackLayout;horizontal=1;startSize=26;horizontalStack=0;resizeParent=1;resizeParentMax=0;resizeLast=0;collapsible=1;marginBottom=0;whiteSpace=wrap;html=1;" vertex="1" parent="1">
          <mxGeometry x="820" y="160" width="160" height="86" as="geometry" />
        </mxCell>
        <mxCell id="bhQrwd5_D6PokJX49yjE-6" value="Role:Enum" style="text;strokeColor=none;fillColor=none;align=left;verticalAlign=top;spacingLeft=4;spacingRight=4;overflow=hidden;rotatable=0;points=[[0,0.5],[1,0.5]];portConstraint=eastwest;whiteSpace=wrap;html=1;" vertex="1" parent="bhQrwd5_D6PokJX49yjE-5">
          <mxGeometry y="26" width="160" height="26" as="geometry" />
        </mxCell>
        <mxCell id="bhQrwd5_D6PokJX49yjE-7" value="" style="line;strokeWidth=1;fillColor=none;align=left;verticalAlign=middle;spacingTop=-1;spacingLeft=3;spacingRight=3;rotatable=0;labelPosition=right;points=[];portConstraint=eastwest;strokeColor=inherit;" vertex="1" parent="bhQrwd5_D6PokJX49yjE-5">
          <mxGeometry y="52" width="160" height="8" as="geometry" />
        </mxCell>
        <mxCell id="bhQrwd5_D6PokJX49yjE-8" value="getRole(String): Enum" style="text;strokeColor=none;fillColor=none;align=left;verticalAlign=top;spacingLeft=4;spacingRight=4;overflow=hidden;rotatable=0;points=[[0,0.5],[1,0.5]];portConstraint=eastwest;whiteSpace=wrap;html=1;" vertex="1" parent="bhQrwd5_D6PokJX49yjE-5">
          <mxGeometry y="60" width="160" height="26" as="geometry" />
        </mxCell>
        <mxCell id="bhQrwd5_D6PokJX49yjE-13" value="" style="endArrow=diamondThin;endFill=1;endSize=24;html=1;rounded=0;entryX=1.038;entryY=0.643;entryDx=0;entryDy=0;entryPerimeter=0;exitX=0.388;exitY=-0.054;exitDx=0;exitDy=0;exitPerimeter=0;" edge="1" parent="1" source="bhQrwd5_D6PokJX49yjE-5" target="foKu9SYrdTQAazQL1OzK-10">
          <mxGeometry width="160" relative="1" as="geometry">
            <mxPoint x="850" y="130" as="sourcePoint" />
            <mxPoint x="520" y="200" as="targetPoint" />
          </mxGeometry>
        </mxCell>
        <mxCell id="bhQrwd5_D6PokJX49yjE-15" value="Address" style="swimlane;fontStyle=1;align=center;verticalAlign=top;childLayout=stackLayout;horizontal=1;startSize=20;horizontalStack=0;resizeParent=1;resizeParentMax=0;resizeLast=0;collapsible=1;marginBottom=0;whiteSpace=wrap;html=1;" vertex="1" parent="1">
          <mxGeometry x="830" y="-340" width="160" height="144" as="geometry" />
        </mxCell>
        <mxCell id="bhQrwd5_D6PokJX49yjE-16" value="street:String&lt;br&gt;city:String&lt;br&gt;state:String&lt;br&gt;country:String&lt;br&gt;zipCode:String" style="text;strokeColor=none;fillColor=none;align=left;verticalAlign=top;spacingLeft=4;spacingRight=4;overflow=hidden;rotatable=0;points=[[0,0.5],[1,0.5]];portConstraint=eastwest;whiteSpace=wrap;html=1;" vertex="1" parent="bhQrwd5_D6PokJX49yjE-15">
          <mxGeometry y="20" width="160" height="90" as="geometry" />
        </mxCell>
        <mxCell id="bhQrwd5_D6PokJX49yjE-17" value="" style="line;strokeWidth=1;fillColor=none;align=left;verticalAlign=middle;spacingTop=-1;spacingLeft=3;spacingRight=3;rotatable=0;labelPosition=right;points=[];portConstraint=eastwest;strokeColor=inherit;" vertex="1" parent="bhQrwd5_D6PokJX49yjE-15">
          <mxGeometry y="110" width="160" height="8" as="geometry" />
        </mxCell>
        <mxCell id="bhQrwd5_D6PokJX49yjE-18" value="getAddress()" style="text;strokeColor=none;fillColor=none;align=left;verticalAlign=top;spacingLeft=4;spacingRight=4;overflow=hidden;rotatable=0;points=[[0,0.5],[1,0.5]];portConstraint=eastwest;whiteSpace=wrap;html=1;" vertex="1" parent="bhQrwd5_D6PokJX49yjE-15">
          <mxGeometry y="118" width="160" height="26" as="geometry" />
        </mxCell>
        <mxCell id="bhQrwd5_D6PokJX49yjE-20" value="" style="endArrow=open;endFill=1;endSize=12;html=1;rounded=0;exitX=1;exitY=0.5;exitDx=0;exitDy=0;entryX=0.4;entryY=1.09;entryDx=0;entryDy=0;entryPerimeter=0;" edge="1" parent="1" source="AbFi8-gE8N-cRS5Ds_fm-18" target="bhQrwd5_D6PokJX49yjE-18">
          <mxGeometry width="160" relative="1" as="geometry">
            <mxPoint x="590" y="-260" as="sourcePoint" />
            <mxPoint x="750" y="-260" as="targetPoint" />
          </mxGeometry>
        </mxCell>
      </root>
    </mxGraphModel>
  </diagram>
  <diagram id="6KGuB7UD7IFNFCd5KZnu" name="Page-2">
    <mxGraphModel dx="737" dy="430" grid="1" gridSize="10" guides="1" tooltips="1" connect="1" arrows="1" fold="1" page="1" pageScale="1" pageWidth="850" pageHeight="1100" math="0" shadow="0">
      <root>
        <mxCell id="0" />
        <mxCell id="1" parent="0" />
      </root>
    </mxGraphModel>
  </diagram>
</mxfile>
